<?xml version="1.0" encoding="UTF-8"?>
<svg id="Layer_2" xmlns="http://www.w3.org/2000/svg" version="1.1" xmlns:xlink="http://www.w3.org/1999/xlink" viewBox="0 0 447.8 447.8">
  <!-- Generator: Adobe Illustrator 30.5.1, SVG Export Plug-In . SVG Version: 2.1.4 Build 3)  -->
  <defs>
    <style>
      .st0 {
        fill: #fff;
      }

      .st1 {
        fill: url(#linear-gradient);
      }
    </style>
    <linearGradient id="linear-gradient" x1="36.2" y1="389.8" x2="411.9" y2="57.7" gradientUnits="userSpaceOnUse">
      <stop offset="0" stop-color="#ce38ce"/>
      <stop offset="1" stop-color="#2323c9"/>
    </linearGradient>
  </defs>
  <path class="st1" d="M311.8,0h-175.8C60.9,0,0,60.9,0,136v175.8c0,75.1,60.9,136,136,136h175.8c75.1,0,136-60.9,136-136v-175.8C447.8,60.9,386.9,0,311.8,0Z"/>
  <path class="st0" d="M277.7,51.2c-63.6,0-115.2,51.6-115.2,115.2s6.7,44.2,18.2,62.1l-99.4,99.4c-9.7,9.7-9.7,25.3,0,35h0c9.7,9.7,25.3,9.7,35,0l99.4-99.4c17.9,11.5,39.2,18.1,62,18.1,63.6,0,115.2-51.6,115.2-115.2s-51.6-115.2-115.2-115.2ZM277.7,241.8c-41.6,0-75.4-33.7-75.4-75.4s33.7-75.4,75.4-75.4,75.4,33.7,75.4,75.4-33.7,75.4-75.4,75.4Z"/>
  <circle class="st0" cx="290.8" cy="152.1" r="36.4"/>
</svg>